<?xml version="1.0" encoding="utf-8"?>
<!-- Svg Vector Icons : http://www.onlinewebfonts.com/icon -->
<!DOCTYPE svg PUBLIC "-//W3C//DTD SVG 1.1//EN" "http://www.w3.org/Graphics/SVG/1.1/DTD/svg11.dtd">
<svg version="1.1" xmlns="http://www.w3.org/2000/svg" xmlns:xlink="http://www.w3.org/1999/xlink" x="0px" y="0px" viewBox="0 0 256 256" enable-background="new 0 0 256 256" xml:space="preserve">
<metadata> Svg Vector Icons : http://www.onlinewebfonts.com/icon </metadata>
<g><g><path fill="#FFFFFF" d="M128,195.1c-26.5,0-47.2-10.1-47.2-22.9c0-12.9,20.7-22.9,47.2-22.9c26.5,0,47.2,10.1,47.2,22.9C175.2,185,154.5,195.1,128,195.1z M128,153.7c-23.1,0-42.7,8.4-42.7,18.4c0,10,19.6,18.4,42.7,18.4c23.1,0,42.7-8.4,42.7-18.4C170.7,162.2,151.1,153.7,128,153.7z M243.8,193.2h-60.4c-0.9,0-1.6-0.5-2-1.3c-0.4-0.8-0.3-1.7,0.2-2.4l15.7-20.6c-0.1-2-0.5-3.6-1.3-5.8c-6.4-17.7-34.8-30.6-67.6-30.7c-0.3,0-0.5,0-0.8,0c-33.3,0.1-61.8,13.2-67.8,31.3c-0.6,1.9-1.3,4.7-1.5,7l14.2,18.8c0.5,0.7,0.6,1.6,0.2,2.4c-0.4,0.8-1.2,1.3-2,1.3H12.2c-1.3,0-2.2-1-2.2-2.2v-74.6c0-15.2,12.5-29.3,35.2-39.7C67.4,66.5,96.8,60.9,128,60.9c31.2,0,60.6,5.6,82.8,15.8c22.7,10.5,35.2,24.6,35.2,39.7v74.5C246,192.2,245,193.2,243.8,193.2z M187.9,188.7h53.6v-70l-17.4,22.7c0,0,0,0,0,0.1l-22.7,29.6c0,0,0,0,0,0L187.9,188.7z M14.5,188.7h51.7l-11.9-15.7c0,0,0-0.1-0.1-0.1L41.5,156c0,0,0,0-0.1-0.1l-10.3-13.6c0,0,0,0-0.1-0.1l-10.1-13.4l0,0l-6.4-8.5V188.7z M45.5,153.9l9.1,12c0.3-1.3,0.6-2.4,1-3.4c3.6-10.7,14-19.9,28.5-26l-4.8-12.1C59.4,131.2,46,142.1,45.5,153.9z M172,136.4c14.1,6,24.5,14.9,28.3,25.3c0.3,0.9,0.6,1.6,0.8,2.4l9.1-11.9c-0.5-11.7-13.4-22.1-33.1-28.6L172,136.4z M35.1,140.2l6.7,8.8c3.3-11.7,16.8-22.1,35.8-28.9l-4.9-12.5C50.4,115.1,35.6,127,35.1,140.2z M178.7,119.4c19,6.4,32,16.3,35.2,27.9l6.1-8c-0.5-13-14.8-24.6-36.6-32L178.7,119.4z M25,126.7l6.4,8.4c3.4-13.1,18.3-24.5,39.7-31.8l-5-12.7C41.6,99.1,25.5,112.2,25,126.7z M130.2,128c13.7,0.2,26.6,2.6,37.5,6.7l4.9-12.5c-12.3-3.5-26.8-5.7-42.5-5.9V128L130.2,128z M83.5,122.8l4.7,11.9c11-4,23.9-6.5,37.6-6.7v-11.6C110.5,116.6,95.9,119,83.5,122.8z M185.1,103.1c21,7.2,35.4,18.3,38.7,31.2l6.7-8.8c-0.4-14.4-16.2-27.2-40.4-35.3L185.1,103.1z M14.7,113.2l6.4,8.5c3.5-14.4,19.7-27.1,43.2-35.3l-4.2-10.8c-4.6,1.6-8.9,3.3-13,5.2C27.8,89.7,16.4,101.1,14.7,113.2z M191.8,86c23.4,7.9,39.3,20.2,42.6,34.5l6.6-8.6c-2.3-11.6-13.5-22.5-32.1-31c-4.1-1.9-8.5-3.6-13-5.2L191.8,86z M76.9,106.2l4.9,12.5c12.9-4,27.9-6.5,43.9-6.7V99.1C107.9,99.3,91.1,101.9,76.9,106.2z M130.2,111.9c16.3,0.2,31.4,2.4,44.1,6.2l4.8-12.1c-14-4.2-30.8-6.7-48.9-6.9V111.9L130.2,111.9z M70.3,89.2l5,12.7c14.6-4.5,31.9-7.2,50.5-7.4V81C105.4,81.2,86.3,84.2,70.3,89.2z M130.2,94.6c18.8,0.2,36,2.8,50.5,7.2l5.1-12.9c-15.9-4.8-35-7.7-55.6-7.9V94.6L130.2,94.6z M64.4,74.3L68.6,85c16.4-5.2,36-8.3,57.1-8.5V65.4C103.6,65.6,82.4,68.7,64.4,74.3z M130.2,76.5c21.3,0.2,40.9,3.1,57.3,8.1l4.1-10.4c-18-5.6-39.2-8.6-61.3-8.8V76.5L130.2,76.5z"/><g></g><g></g><g></g><g></g><g></g><g></g><g></g><g></g><g></g><g></g><g></g><g></g><g></g><g></g><g></g></g></g>
</svg>